<svg width="78" height="77" viewBox="0 0 78 77" fill="none" xmlns="http://www.w3.org/2000/svg">
<path d="M47.3342 2.84154C44.4366 5.70207 42.9351 10.6878 44.0271 14.5917C44.6082 16.6552 44.7018 19.1539 43.1691 20.6708L20.9392 42.6156C19.4026 44.1287 16.8715 44.0363 14.7773 43.4626C10.8266 42.3846 5.77612 43.8669 2.87844 46.7274C1.96605 47.6278 1.24224 48.6969 0.748358 49.8735C0.254473 51.0501 0.00018117 52.3112 9.69016e-08 53.5848C-0.000365596 56.1569 1.03434 58.6239 2.8765 60.4429C4.71865 62.262 7.21735 63.2841 9.82292 63.2845C12.4285 63.2848 14.9275 62.2634 16.7702 60.4449C14.928 62.2639 13.8933 64.7309 13.8937 67.303C13.894 69.8752 14.9294 72.3419 16.7721 74.1604C18.6148 75.9789 21.1138 77.0004 23.7193 77C26.3249 76.9996 28.8236 75.9775 30.6658 74.1585C33.5634 71.2979 35.0649 66.3122 33.9729 62.4083C33.3918 60.3447 33.2982 57.8461 34.8309 56.3292L57.0608 34.3844C58.5974 32.8713 61.1284 32.9637 63.2227 33.5374C67.1734 34.6154 72.2239 33.1331 75.1215 30.2726C76.9642 28.4541 77.9996 25.9874 78 23.4152C78.0004 20.8431 76.9657 18.3761 75.1235 16.5571C74.2114 15.6564 73.1284 14.9418 71.9366 14.4543C70.7447 13.9667 69.4672 13.7157 68.1771 13.7155C65.5715 13.7152 63.0725 14.7366 61.2298 16.5551C63.072 14.7361 64.1067 12.2691 64.1063 9.69698C64.106 7.12482 63.0706 4.65815 61.2279 2.83962C59.3852 1.02108 56.8862 -0.00036089 54.2807 9.56491e-08C51.6751 0.000361082 49.1764 1.02249 47.3342 2.84154Z" fill="#4A3A4F"/>
</svg>
