<svg width="85" height="73" viewBox="0 0 85 73" fill="none" xmlns="http://www.w3.org/2000/svg">
<g clip-path="url(#clip0_61_6)">
<path d="M42.5 0C19.0294 0 0 16.3429 0 36.5C0 56.6571 19.0294 73 42.5 73C65.9706 73 85 56.6571 85 36.5C84.9292 16.3672 65.9423 0.0608333 42.5071 0H42.5ZM42.5 65.7C23.7221 65.7 8.5 52.6269 8.5 36.5C8.5 20.3731 23.7221 7.3 42.5 7.3C61.2779 7.3 76.5 20.3731 76.5 36.5C76.4433 52.6087 61.2567 65.6513 42.5071 65.7H42.5ZM44.625 18.25H38.25V40.15L60.35 51.83L63.75 47.085L44.625 37.23V18.25Z" fill="#4A3A4F"/>
</g>
<defs>
<clipPath id="clip0_61_6">
<rect width="85" height="73" fill="white"/>
</clipPath>
</defs>
</svg>
