<svg width="80" height="62" viewBox="0 0 80 62" fill="none" xmlns="http://www.w3.org/2000/svg">
<path d="M24 31C31.7375 31 38 24.0665 38 15.5C38 6.93348 31.7375 0 24 0C16.2625 0 10 6.93348 10 15.5C10 24.0665 16.2625 31 24 31ZM33.6 35.4286H32.5625C29.9625 36.8125 27.075 37.6429 24 37.6429C20.925 37.6429 18.05 36.8125 15.4375 35.4286H14.4C6.45 35.4286 0 42.5696 0 51.3714V55.3571C0 59.0246 2.6875 62 6 62H42C45.3125 62 48 59.0246 48 55.3571V51.3714C48 42.5696 41.55 35.4286 33.6 35.4286ZM60 31C66.625 31 72 25.0491 72 17.7143C72 10.3795 66.625 4.42857 60 4.42857C53.375 4.42857 48 10.3795 48 17.7143C48 25.0491 53.375 31 60 31ZM66 35.4286H65.525C63.7875 36.0929 61.95 36.5357 60 36.5357C58.05 36.5357 56.2125 36.0929 54.475 35.4286H54C51.45 35.4286 49.1 36.2451 47.0375 37.5598C50.0875 41.1996 52 46.0295 52 51.3714V56.6857C52 56.9902 51.9375 57.2808 51.925 57.5714H74C77.3125 57.5714 80 54.596 80 50.9286C80 42.3621 73.7375 35.4286 66 35.4286Z" fill="#4A3A4F"/>
</svg>
