<svg width="388" height="674" viewBox="0 0 388 674" fill="none" xmlns="http://www.w3.org/2000/svg">
<path d="M359.013 236.263C359.012 294.635 335.135 350.618 292.63 391.9C250.125 433.181 192.474 456.381 132.355 456.396C72.236 456.412 14.5719 433.243 -27.9559 391.984C-70.4838 350.725 -94.3932 294.755 -94.4259 236.382C-94.4587 178.01 -70.6121 122.014 -28.1305 80.7103C14.3511 39.4065 71.9891 16.1764 132.108 16.1287C192.227 16.081 249.904 39.2197 292.455 80.4561C335.006 121.693 358.947 177.65 359.012 236.023" fill="#66C7F4"/>
<path d="M-24.4882 75.8001C-33.9377 84.3265 -42.6187 93.6978 -50.393 103.764C-58.4908 114.25 -65.5992 125.481 -71.8114 137.174C-77.4164 147.724 -82.3089 158.69 -85.6902 170.142C-88.471 179.56 -90.2243 189.462 -88.964 199.198C-88.2579 204.654 -86.4738 210.21 -82.5593 214.09C-80.2735 216.356 -77.2613 217.969 -74.0491 218.25C-72.4429 218.391 -70.803 218.197 -69.2905 217.641C-67.778 217.085 -66.3965 216.162 -65.3412 214.948C-63.5777 212.918 -62.7994 210.203 -61.1448 208.085C-60.3174 207.026 -59.2434 206.112 -57.9582 205.71C-57.3156 205.509 -56.6277 205.44 -55.9622 205.544C-55.2968 205.648 -54.6553 205.928 -54.1494 206.371C-53.5299 206.914 -53.135 207.678 -52.9296 208.473C-52.7242 209.269 -52.6967 210.1 -52.7208 210.921C-52.7449 211.742 -52.8193 212.562 -52.8134 213.384C-52.8076 214.206 -52.7186 215.037 -52.4276 215.805C-52.1018 216.666 -51.5283 217.424 -50.8256 218.02C-50.1229 218.617 -49.2939 219.056 -48.4232 219.362C-46.682 219.975 -44.8037 220.057 -42.9576 220.094C-39.7861 220.156 -36.5951 220.102 -33.4648 220.612C-30.3344 221.123 -27.2193 222.249 -24.8785 224.382C-22.3897 226.65 -20.9866 229.835 -19.6692 232.928C-18.3518 236.021 -16.9874 239.215 -14.5476 241.535C-11.9599 243.996 -8.43745 245.206 -4.97284 246.094C-1.50822 246.982 2.06622 247.635 5.25323 249.254C8.07678 250.688 10.4748 252.822 12.7632 255.006C15.0517 257.191 17.2824 259.464 19.8887 261.261C23.4374 263.707 27.6397 265.205 31.9414 265.549C33.024 265.636 34.1248 265.65 35.184 265.41C36.2431 265.171 37.2655 264.659 37.9677 263.834C38.8282 262.822 39.1319 261.406 38.9168 260.097C38.7018 258.789 38.0045 257.589 37.087 256.629C35.2519 254.708 32.656 253.752 30.2196 252.684C25.2462 250.505 20.5175 247.565 16.9511 243.482C13.3848 239.398 11.0605 234.078 11.2796 228.67C11.4692 223.992 13.5304 219.527 16.4151 215.83C19.2998 212.133 22.9796 209.132 26.7759 206.371C29.5466 204.356 32.4291 202.435 35.6304 201.207C38.8316 199.979 42.4031 199.481 45.7159 200.368C49.4369 201.363 52.5183 204.008 54.9071 207.019C57.2959 210.031 59.1094 213.447 61.2122 216.663C62.8063 219.101 64.5984 221.458 66.8992 223.251C69.2 225.043 72.0694 226.239 74.9867 226.097C76.7412 226.012 78.4811 225.434 79.8852 224.382C81.2893 223.331 82.3417 221.799 82.7349 220.094C83.0565 218.699 82.9377 217.223 82.5241 215.853C82.1105 214.482 81.411 213.209 80.5835 212.039C78.9285 209.699 76.7705 207.758 74.9868 205.514C72.7158 202.656 71.065 199.299 70.2868 195.738C69.5086 192.177 69.6133 188.415 70.6822 184.93C72.5655 178.789 77.2151 173.929 81.874 169.492C86.3739 165.207 91.0561 161.06 96.3318 157.768C101.608 154.476 107.529 152.053 113.728 151.481C118.888 151.006 124.068 151.816 129.224 152.339C130.557 152.474 131.9 152.59 133.236 152.493C134.573 152.396 135.913 152.077 137.064 151.393C138.216 150.71 139.165 149.636 139.533 148.353C139.717 147.711 139.753 147.024 139.614 146.371C139.475 145.718 139.159 145.1 138.694 144.62C137.953 143.856 136.891 143.484 135.841 143.3C134.791 143.117 133.716 143.096 132.668 142.905C130.035 142.424 127.63 140.817 126.183 138.573C124.736 136.33 124.268 133.484 124.919 130.898C125.347 129.198 126.231 127.634 127.339 126.274C128.447 124.914 129.777 123.748 131.174 122.683C133.967 120.553 137.062 118.789 139.555 116.317C141.546 114.343 143.145 111.849 143.504 109.073C143.683 107.685 143.544 106.248 143.025 104.947C142.506 103.647 141.6 102.49 140.416 101.737C139.427 101.109 138.271 100.772 137.105 100.649C135.939 100.526 134.76 100.61 133.599 100.775C131.278 101.105 128.986 101.76 126.641 101.737C124.529 101.717 122.448 101.143 120.521 100.28C118.594 99.4173 116.809 98.2709 115.08 97.0622C111.621 94.6448 108.267 91.9149 104.258 90.5878C100.915 89.4814 97.1976 89.4385 93.8856 90.6337C90.5736 91.8288 87.7059 94.2868 86.1786 97.449C84.7215 100.466 84.5139 103.921 83.4728 107.104C82.9522 108.696 82.2065 110.241 81.0727 111.477C79.9388 112.712 78.3841 113.617 76.7086 113.744C75.0422 113.871 73.358 113.208 72.1313 112.078C70.9047 110.947 70.1237 109.378 69.8214 107.741C69.3443 105.157 70.0097 102.481 69.6635 99.8769C69.4904 98.5747 69.0442 97.2747 68.1729 96.2889C67.7372 95.796 67.1988 95.3889 66.5915 95.1333C65.9843 94.8777 65.3076 94.7768 64.6559 94.8761C64.077 94.9643 63.5303 95.2062 63.0326 95.5137C62.5349 95.8213 62.0819 96.1945 61.632 96.568C61.1821 96.9415 60.732 97.3178 60.239 97.6327C59.746 97.9477 59.2056 98.2014 58.6296 98.3067C58.0303 98.4163 57.4038 98.3607 56.8271 98.1649C56.2504 97.9691 55.7238 97.6348 55.2885 97.21C54.4181 96.3605 53.9319 95.1658 53.8193 93.957C53.7067 92.7482 53.9476 91.5257 54.3735 90.3884C54.7995 89.251 55.4066 88.1901 56.0468 87.1572C61.3212 78.6486 68.9892 71.7637 77.5695 66.5735C79.2205 65.5748 80.9107 64.6329 82.4726 63.501C84.0345 62.369 85.4776 61.0303 86.4854 59.3887C87.4931 57.7472 88.0396 55.7767 87.7436 53.8753C87.5955 52.9245 87.2379 52.0027 86.6757 51.2204C86.1135 50.4382 85.3446 49.799 84.4568 49.4204C83.4841 49.0056 82.3873 48.9111 81.3435 49.0838C80.2997 49.2565 79.3081 49.6893 78.4304 50.2781C76.0254 51.8915 74.5648 54.5559 72.4729 56.5561C71.427 57.5562 70.1887 58.4038 68.7824 58.7546C68.0792 58.93 67.3405 58.9774 66.6255 58.8581C65.9106 58.7388 65.2204 58.45 64.6559 57.9969C63.6584 57.1965 63.1146 55.9309 62.9803 54.6619C62.8461 53.3928 63.0843 52.1124 63.4254 50.8824C63.7666 49.6525 64.2113 48.4512 64.5046 47.2091C64.7979 45.9669 64.9363 44.6619 64.6559 43.4168C64.3996 42.2783 63.7916 41.2234 62.946 40.4162C62.1003 39.609 61.0214 39.0505 59.8758 38.8079C58.7302 38.5653 57.5214 38.6372 56.4073 38.9971C55.2933 39.3571 54.2757 40.0026 53.4641 40.8439C52.5413 41.8003 51.8957 42.9862 51.3357 44.1898C50.7757 45.3934 50.2879 46.6339 49.6246 47.7842C48.9612 48.9345 48.1012 50.0072 46.961 50.6926C46.3909 51.0353 45.7554 51.276 45.0954 51.3637C44.4354 51.4515 43.751 51.3832 43.1332 51.1357C42.2743 50.7915 41.5781 50.116 41.0812 49.3378C40.5843 48.5596 40.2714 47.6794 40.0164 46.7927C39.7614 45.9061 39.5598 45.0037 39.2634 44.1299C38.967 43.2561 38.5692 42.4028 37.9678 41.7015C37.1428 40.7396 35.9628 40.1116 34.7207 39.8476C33.4787 39.5836 32.1777 39.669 30.946 39.9773C28.4825 40.594 26.3353 42.0569 24.1932 43.4168C15.2564 49.0905 5.49632 53.3769 -3.49883 58.9585C-11.1428 63.7016 -18.2077 69.3704 -24.4882 75.8001Z" fill="#3C787E"/>
<path d="M65.5168 250.969C63.3208 248.526 60.4673 246.676 57.3364 245.664C54.2054 244.652 50.8049 244.481 47.5876 245.174C44.3703 245.867 41.3444 247.422 38.9128 249.632C36.4812 251.842 34.65 254.702 33.6632 257.83C33.0155 259.883 32.7288 262.031 32.1995 264.117C31.6702 266.204 30.8593 268.29 29.3586 269.838C27.916 271.326 25.9661 272.191 24.1932 273.268C20.1828 275.705 16.9789 279.326 14.6185 283.372C12.2581 287.418 10.706 291.887 9.55776 296.425C7.78485 303.431 6.95588 310.852 8.69685 317.866C10.2516 324.131 13.8364 329.825 18.5766 334.223C23.3169 338.621 29.1792 341.746 35.385 343.596C40.3741 345.083 45.5956 345.77 50.483 347.56C52.9268 348.456 55.2858 349.633 57.3259 351.245C59.366 352.856 61.0812 354.92 62.0731 357.318C63.3432 360.389 63.3732 363.827 63.055 367.134C62.7367 370.44 62.0896 373.723 62.0731 377.044C62.0373 384.253 64.9906 391.201 68.9878 397.21C72.9851 403.218 78.0182 408.457 82.7349 413.923C89.8573 422.178 96.3122 431.027 101.675 440.511C102.875 442.633 104.024 444.792 105.435 446.782C106.847 448.771 108.543 450.602 110.633 451.866C112.724 453.13 115.243 453.791 117.652 453.372C118.856 453.163 120.018 452.685 120.994 451.95C121.969 451.216 122.753 450.222 123.198 449.087C123.8 447.55 123.76 445.82 123.366 444.218C122.972 442.615 122.24 441.117 121.476 439.653C119.499 435.868 117.254 432.194 115.843 428.166C114.431 424.138 113.911 419.62 115.45 415.639C116.512 412.887 118.495 410.561 120.788 408.697C123.081 406.834 125.688 405.397 128.305 404.022C130.923 402.647 133.576 401.317 136.007 399.636C138.438 397.955 140.661 395.894 142.138 393.34C144.348 389.518 144.72 384.944 144.958 380.54C145.196 376.136 145.386 371.586 147.303 367.61C149.172 363.735 152.501 360.786 155.051 357.318C159.542 351.212 161.506 343.683 164.521 336.735C166.664 331.796 169.361 327.114 171.587 322.212C173.814 317.31 175.585 312.095 175.713 306.717C175.798 303.145 175.137 299.528 173.551 296.324C171.965 293.12 169.428 290.348 166.243 288.706C162.242 286.643 157.541 286.461 153.043 286.709C148.544 286.958 144.02 287.59 139.555 286.991C132.127 285.993 125.283 281.416 121.476 274.983C119.596 271.807 118.442 268.262 116.781 264.967C115.95 263.319 114.988 261.727 113.779 260.331C112.571 258.935 111.108 257.736 109.423 256.973C107.744 256.212 105.883 255.902 104.039 255.908C102.195 255.913 100.363 256.227 98.5735 256.67C94.9945 257.557 91.5423 258.966 87.9005 259.546C83.7658 260.204 79.4586 259.755 75.5504 258.258C71.6422 256.76 68.1428 254.218 65.5168 250.969Z" fill="#3C787E"/>
<path d="M333.941 133.658C327.175 122.576 319.646 111.956 311.426 101.897C303.072 91.675 294.017 82.0455 284.893 72.4998C282.644 70.1469 280.297 67.7339 277.281 66.4966C275.773 65.878 274.114 65.5771 272.497 65.7882C270.88 65.9993 269.312 66.7472 268.247 67.9772C267.463 68.8823 266.971 70.0178 266.745 71.192C266.519 72.3662 266.551 73.5795 266.733 74.7611C267.062 76.8834 267.871 78.919 268.084 81.0559C268.19 82.1243 268.143 83.2204 267.815 84.2434C267.488 85.2664 266.866 86.2142 265.977 86.8216C265.192 87.3582 264.24 87.6072 263.293 87.7078C262.346 87.8083 261.391 87.7698 260.439 87.7825C259.486 87.7951 258.522 87.8616 257.619 88.1625C256.716 88.4633 255.871 89.0213 255.384 89.8366C255.109 90.2966 254.957 90.824 254.912 91.3572C254.866 91.8904 254.926 92.4296 255.054 92.9491C255.311 93.9883 255.837 94.9389 256.368 95.8691C256.9 96.7992 257.447 97.7338 257.755 98.7592C258.062 99.7846 258.11 100.928 257.654 101.897C257.372 102.495 256.908 103 256.353 103.361C255.798 103.722 255.154 103.939 254.497 104.023C253.183 104.19 251.845 103.825 250.662 103.23C248.295 102.041 246.45 99.9679 244.034 98.882C241.309 97.6569 238.002 97.8606 235.403 99.3333C232.804 100.806 230.953 103.49 230.415 106.42C230.127 107.985 230.194 109.594 230.005 111.174C229.911 111.965 229.751 112.752 229.458 113.492C229.164 114.232 228.733 114.926 228.145 115.465C227.41 116.139 226.461 116.545 225.488 116.769C224.515 116.992 223.511 117.044 222.514 117.084C221.516 117.124 220.513 117.155 219.532 117.339C218.551 117.522 217.583 117.868 216.795 118.48C215.751 119.292 215.093 120.53 214.809 121.819C214.526 123.109 214.593 124.453 214.801 125.756C215.216 128.364 216.19 130.92 216.039 133.556C215.892 136.119 214.687 138.531 214.526 141.093C214.367 143.629 215.325 146.257 217.228 147.949C218.179 148.795 219.35 149.4 220.598 149.661C221.846 149.922 223.169 149.835 224.362 149.385C225.599 148.919 226.67 148.08 227.55 147.096C228.429 146.111 229.128 144.982 229.772 143.83C231.059 141.528 232.195 139.046 234.198 137.325C235.742 135.997 237.678 135.233 239.495 134.309C241.685 133.196 243.806 131.803 246.233 131.407C247.446 131.209 248.723 131.279 249.855 131.758C250.986 132.237 251.956 133.152 252.358 134.309C252.579 134.949 252.625 135.642 252.543 136.313C252.462 136.985 252.257 137.637 251.991 138.26C251.46 139.505 250.687 140.633 250.088 141.847C249.413 143.215 248.963 144.681 248.433 146.111C247.903 147.541 247.277 148.961 246.305 150.139C245.286 151.373 243.924 152.291 242.478 152.983C241.032 153.676 239.496 154.157 237.966 154.638C236.436 155.119 234.9 155.605 233.459 156.306C232.017 157.007 230.663 157.938 229.659 159.184C228.624 160.468 228 162.039 227.607 163.639C227.215 165.239 227.04 166.882 226.814 168.514C226.588 170.145 226.305 171.783 225.709 173.319C225.112 174.855 224.179 176.297 222.849 177.275C221.397 178.342 219.547 178.793 217.743 178.736C215.94 178.68 214.179 178.143 212.541 177.389C209.265 175.882 206.444 173.523 203.176 171.998C200.282 170.648 197.053 169.982 193.865 170.204C190.677 170.426 187.54 171.551 185.017 173.506C181.879 175.937 179.84 179.471 177.755 182.843C175.671 186.215 173.338 189.635 169.884 191.596C168.381 192.45 166.703 193.002 165.298 194.01C164.596 194.514 163.966 195.136 163.543 195.888C163.121 196.641 162.918 197.532 163.075 198.38C163.171 198.899 163.399 199.392 163.72 199.811C164.042 200.231 164.454 200.579 164.915 200.839C165.837 201.36 166.934 201.524 167.989 201.426C170.099 201.23 171.969 200.06 173.807 199.008C174.726 198.482 175.662 197.977 176.661 197.623C177.659 197.27 178.728 197.073 179.782 197.182C180.836 197.29 181.875 197.722 182.606 198.486C182.971 198.868 183.256 199.329 183.417 199.832C183.578 200.335 183.614 200.879 183.504 201.395C183.386 201.947 183.109 202.451 182.815 202.933C182.52 203.415 182.203 203.887 181.991 204.411C181.643 205.268 181.599 206.236 181.818 207.135C182.036 208.034 182.511 208.862 183.139 209.543C184.394 210.905 186.212 211.645 188.044 211.948C191.456 212.514 194.94 211.699 198.398 211.781C200.127 211.822 201.878 212.097 203.435 212.847C204.992 213.597 206.346 214.86 206.96 216.471C207.367 217.539 207.436 218.702 207.46 219.844C207.483 220.986 207.469 222.14 207.716 223.255C208.047 224.739 208.849 226.106 209.941 227.167C211.034 228.228 212.409 228.986 213.876 229.405C216.809 230.244 220.022 229.712 222.771 228.392C225.519 227.071 227.849 225.012 229.899 222.761C231.95 220.51 233.754 218.049 235.712 215.717C240.706 209.768 246.789 204.615 253.871 201.395C256.762 200.081 259.844 199.088 263.017 198.934C266.19 198.78 269.473 199.518 272.03 201.395C275.057 203.617 276.806 207.178 279.597 209.687C281.51 211.407 283.905 212.596 286.441 213.049C288.977 213.503 291.647 213.214 294.013 212.199C296.38 211.183 298.431 209.439 299.781 207.253C301.131 205.066 301.768 202.445 301.539 199.888C301.313 197.369 300.272 194.975 298.878 192.862C297.483 190.749 295.74 188.89 293.973 187.074C292.605 185.667 291.209 184.271 290.079 182.669C288.949 181.066 288.086 179.226 287.92 177.275C287.73 175.043 288.489 172.767 289.891 171.016C291.293 169.266 293.31 168.038 295.486 167.476C298.913 166.59 302.606 167.337 305.792 168.874C308.979 170.411 311.737 172.691 314.402 175.013C316.081 176.476 317.818 178.01 319.967 178.606C321.041 178.904 322.203 178.947 323.265 178.609C324.327 178.27 325.276 177.526 325.752 176.521C326.031 175.929 326.142 175.265 326.119 174.612C326.096 173.958 325.944 173.313 325.717 172.699C325.265 171.471 324.527 170.372 323.882 169.232C323.237 168.093 322.669 166.864 322.609 165.557C322.579 164.903 322.682 164.239 322.952 163.643C323.223 163.047 323.668 162.523 324.238 162.199C324.784 161.889 325.43 161.771 326.056 161.826C326.682 161.88 327.287 162.103 327.823 162.43C328.894 163.084 329.665 164.129 330.291 165.214C332.164 168.461 332.949 172.371 332.194 176.04C331.439 179.708 329.081 183.075 325.752 184.812C324.31 185.565 322.713 186.015 321.341 186.886C320.654 187.321 320.026 187.866 319.578 188.542C319.13 189.218 318.87 190.035 318.942 190.843C319.022 191.751 319.519 192.592 320.199 193.202C320.879 193.812 321.732 194.206 322.612 194.456C324.372 194.956 326.249 194.909 328.021 195.365C329.833 195.832 331.471 196.808 333.253 197.376C334.144 197.661 335.078 197.842 336.013 197.794C336.947 197.745 337.884 197.455 338.614 196.873C339.323 196.308 339.804 195.502 340.133 194.659C340.463 193.817 340.655 192.929 340.885 192.054C341.116 191.18 341.392 190.305 341.869 189.536C342.346 188.766 343.047 188.104 343.911 187.827C344.759 187.556 345.676 187.674 346.557 187.805C347.438 187.933 348.35 188.069 349.207 187.827C350.046 187.593 350.762 187.004 351.227 186.27C351.691 185.536 351.915 184.667 351.949 183.8C352.017 182.066 351.361 180.395 350.721 178.782C344.795 163.866 339.2 148.82 333.941 133.658Z" fill="#3C787E"/>
<path d="M335.587 220.994L280.353 227.024L335.587 220.994Z" fill="#3C787E"/>
<path d="M284.136 235.315C283.189 235.554 282.183 235.524 281.235 235.287C280.288 235.05 279.397 234.612 278.597 234.054C276.995 232.94 275.769 231.376 274.639 229.788C273.509 228.2 272.44 226.552 271.057 225.177C269.675 223.801 267.92 222.698 265.977 222.5C264.527 222.353 263.057 222.719 261.751 223.364C260.446 224.009 259.292 224.922 258.221 225.907C256.08 227.876 254.179 230.193 251.601 231.546C248.864 232.981 245.662 233.171 242.571 233.26C239.48 233.35 236.3 233.384 233.442 234.561C231.061 235.541 229.033 237.281 227.532 239.367C226.031 241.452 225.039 243.873 224.433 246.367C223.221 251.356 223.528 256.565 223.605 261.697C223.69 267.319 223.535 273.163 225.875 278.28C228.048 283.03 232.155 286.623 236.468 289.586C242.584 293.788 249.511 297.078 256.897 297.878C262.547 298.49 268.359 297.642 273.874 299.005C276.632 299.686 279.301 300.952 281.278 302.985C282.266 304.002 283.07 305.203 283.58 306.524C284.09 307.845 284.301 309.287 284.136 310.692C283.973 312.077 283.451 313.403 282.76 314.616C282.069 315.829 281.21 316.938 280.329 318.022C278.566 320.189 276.655 322.353 275.813 325.014C274.934 327.793 275.336 330.862 276.449 333.557C277.562 336.252 279.342 338.621 281.249 340.83C283.157 343.039 285.213 345.124 286.995 347.435C288.777 349.746 290.296 352.324 290.946 355.165C291.656 358.267 291.292 361.54 290.361 364.583C289.43 367.626 287.952 370.472 286.406 373.256C285.477 374.929 284.518 376.593 283.802 378.367C283.086 380.142 282.617 382.045 282.716 383.955C282.816 385.865 283.525 387.784 284.898 389.121C285.584 389.789 286.427 390.302 287.349 390.571C288.27 390.839 289.267 390.859 290.189 390.593C291.416 390.239 292.454 389.403 293.287 388.439C294.12 387.475 294.776 386.375 295.486 385.317C300.267 378.19 307.412 373.048 313.656 367.15C332.532 349.319 343.161 324.503 350.377 299.606C354.265 286.192 357.314 272.525 359.14 258.683C359.482 256.09 359.782 253.481 359.718 250.867C359.655 248.253 359.217 245.619 358.14 243.234C357.063 240.85 355.313 238.722 353.017 237.455C351.868 236.822 350.594 236.409 349.287 236.287C347.98 236.165 346.642 236.338 345.424 236.823C343.558 237.566 342.061 238.986 340.579 240.339C339.098 241.692 337.517 243.047 335.587 243.607C334.26 243.993 332.824 243.973 331.49 243.609C330.157 243.245 328.924 242.543 327.891 241.627C325.824 239.796 324.593 237.165 324.04 234.465C322.934 229.065 324.35 223.489 324.238 217.979C324.19 215.638 323.835 213.222 322.579 211.243C321.951 210.254 321.1 209.394 320.072 208.828C319.043 208.262 317.833 208.002 316.671 208.18C315.17 208.409 313.854 209.339 312.839 210.465C311.824 211.59 311.063 212.914 310.248 214.191C309.432 215.467 308.535 216.726 307.323 217.638C306.717 218.094 306.036 218.458 305.305 218.662C304.574 218.866 303.791 218.906 303.052 218.733C302.384 218.576 301.762 218.246 301.234 217.809C300.707 217.372 300.272 216.828 299.931 216.235C299.249 215.049 298.944 213.684 298.774 212.327C298.604 210.97 298.561 209.599 298.356 208.247C298.151 206.895 297.772 205.541 296.999 204.411C296.067 203.05 294.584 202.089 292.969 201.734C291.355 201.378 289.625 201.619 288.142 202.347C286.659 203.075 285.425 204.278 284.607 205.709C283.789 207.141 283.382 208.794 283.379 210.441C283.377 212.772 284.157 215.034 285.113 217.161C286.069 219.289 287.21 221.338 287.993 223.534C288.776 225.73 289.19 228.133 288.634 230.397C288.356 231.529 287.834 232.609 287.064 233.486C286.293 234.363 285.27 235.03 284.136 235.315Z" fill="#3C787E"/>
</svg>
