<svg width="554" height="547" viewBox="0 0 554 547" fill="none" xmlns="http://www.w3.org/2000/svg">
<g clip-path="url(#clip0_56_2)">
<path d="M511.057 579.144C452.595 626.977 379.494 649.89 307.829 642.844C236.164 635.797 171.804 599.368 128.902 541.568C86.001 483.768 68.0712 409.329 79.0561 334.622C90.0409 259.916 129.041 191.059 187.48 143.194C245.918 95.3284 319.01 72.3748 390.681 79.3807C462.352 86.3865 526.733 122.778 569.666 180.552C612.6 238.327 630.569 312.753 619.623 387.463C608.677 462.173 569.712 531.051 511.297 578.947" fill="#FCF7F7"/>
<path d="M288.518 237.923C256.753 256.806 228.929 282.689 206.39 312.784C182.121 345.191 163.764 382.981 156.631 423.476C147.721 474.06 157.48 528.875 186.925 570.052C215.822 610.461 261.401 635.345 308.575 645.791C347.2 654.345 387.795 653.942 425.866 643.001C469.029 630.596 508.254 604.822 539.603 571.376C586.216 521.644 615.801 453.134 614.242 383.478C613.51 350.782 605.646 317.391 586.696 291.39C574.093 274.097 557.082 260.721 538.756 250.471C520.429 240.222 500.734 232.948 480.957 226.277C452.093 216.54 422.426 207.931 392.101 207.673C355.841 207.364 320.051 219.178 288.518 237.923Z" fill="#D6CB9D"/>
<path d="M96.6411 317.885C97.5978 312.348 99.8634 307.139 102.982 302.698C106.1 298.256 110.057 294.571 114.427 291.686C123.166 285.915 133.395 283.389 143.565 282.325C161.705 280.428 180.015 282.92 198.245 282.527C202.645 282.432 207.049 282.169 211.445 282.451C215.842 282.732 220.267 283.577 224.288 285.598C228.337 287.632 231.866 290.809 234.846 294.464C237.826 298.119 240.284 302.253 242.549 306.484C247.23 315.23 251.158 324.528 253.471 334.341C255.784 344.155 256.445 354.516 254.646 364.416C252.042 378.749 244.538 391.254 237.525 403.612C234.069 409.703 230.682 415.873 226.573 421.445C222.463 427.016 217.567 432.012 211.717 435.173C203.581 439.568 193.969 440.132 185.109 437.791C176.248 435.45 168.099 430.349 161.001 424.001C146.805 411.306 136.792 393.94 124.861 378.662C117.859 369.694 110.112 361.341 104.287 351.405C101.375 346.436 98.9591 341.077 97.5207 335.388C96.0823 329.698 95.6426 323.662 96.6411 317.885Z" fill="#D6CB9D"/>
<path d="M476.798 130.482C471.9 128.217 466.371 127.089 460.858 127C455.345 126.91 449.848 127.843 444.688 129.508C434.367 132.838 425.535 139.001 417.867 145.906C404.19 158.221 393.771 173.015 381.189 186.203C378.152 189.386 374.984 192.481 372.239 195.863C369.493 199.246 367.161 202.951 366.005 206.99C364.841 211.057 364.905 215.353 365.706 219.503C366.506 223.652 368.027 227.675 369.753 231.608C373.319 239.738 377.817 247.609 383.799 254.57C389.781 261.531 397.296 267.572 406.115 271.558C418.882 277.328 433.545 278.517 447.763 279.988C454.772 280.713 461.794 281.532 468.843 281.498C475.892 281.464 483.029 280.545 489.398 277.939C498.255 274.316 505.163 267.554 509.333 259.786C513.503 252.019 515.073 243.295 514.978 234.675C514.786 217.435 508.188 200.765 504.486 183.806C502.313 173.852 501.113 163.68 497.402 154.072C495.547 149.268 493.056 144.619 489.654 140.512C486.251 136.404 481.91 132.845 476.798 130.482Z" fill="#D6CB9D"/>
<path d="M355.806 380.233C346.347 385.59 339.731 395.364 335.792 405.841C334.384 409.588 333.271 413.48 332.827 417.48C332.052 424.477 333.343 431.523 334.641 438.434C335.939 445.344 337.256 452.381 336.534 459.384C336.433 460.358 336.289 461.344 335.901 462.236C335.362 463.476 334.383 464.457 333.301 465.214C332.219 465.971 331.024 466.53 329.862 467.144C323.671 470.41 318.372 475.222 312.813 479.559C302.633 487.503 291.237 494.133 283.163 504.391C275.68 513.898 271.585 525.976 270.083 538.193C268.582 550.411 269.544 562.826 271.302 575.006C273.758 592.016 278.128 609.527 289.093 622.341C294.9 629.128 302.317 634.266 310.23 638.062C318.143 641.857 326.567 644.358 335.051 646.396C342.381 648.158 349.797 649.587 357.289 650.276C377.69 652.153 398.209 648.51 418.073 643.292C445.277 636.146 471.927 625.934 495.905 610.701C513.223 599.7 529.059 586.116 542.605 570.35C559.167 551.074 572.201 528.681 582.633 505.167C588.065 492.924 592.9 479.851 592.27 466.368C591.623 452.549 585.015 439.318 575.081 430.192C565.147 421.067 552.092 415.973 538.899 415.153C520.113 413.985 501.893 421.047 483.807 426.489C474.764 429.211 465.562 431.556 456.178 432.276C446.794 432.996 437.173 432.038 428.45 428.344C420.814 425.11 414.067 419.871 408.166 413.854C402.264 407.837 397.154 401.033 392.128 394.201C389.444 390.552 386.76 386.866 383.52 383.75C380.281 380.633 376.419 378.082 372.114 377.129C366.595 375.908 360.769 377.423 355.806 380.233Z" fill="#F9F9F9"/>
<path d="M350.665 383.458C358.499 378.056 369.255 376.686 379.737 377.736C383.486 378.111 387.264 378.78 390.914 380.025C397.297 382.201 403.043 386.04 408.664 389.834C414.286 393.629 420.006 397.492 426.372 399.733C427.075 399.981 427.792 400.209 428.516 400.294C429.871 400.453 431.172 400.098 432.291 399.539C433.411 398.98 434.38 398.224 435.383 397.515C440.387 393.983 446.301 391.618 451.919 388.883C462.213 383.872 471.837 377.479 483.513 375.166C494.33 373.024 506.259 374.59 517.454 378.272C528.649 381.954 539.202 387.673 549.283 393.94C563.366 402.693 577.243 413.183 584.818 427.051C588.831 434.396 590.865 442.365 591.559 450.192C592.254 458.02 591.645 465.738 590.611 473.318C589.718 479.868 588.505 486.353 586.619 492.603C581.484 509.622 571.477 524.529 560.308 538.283C545.012 557.121 527.215 574.29 505.91 587.321C490.524 596.733 473.368 603.93 455.063 608.43C432.682 613.93 408.744 615.372 384.689 614.29C372.164 613.727 359.111 612.356 347.515 606.463C335.63 600.423 326.241 589.863 321.552 578.293C316.862 566.723 316.74 554.275 320.405 543.426C325.625 527.979 337.862 516.273 348.637 504.026C354.024 497.902 359.135 491.502 362.884 484.307C366.632 477.111 368.99 469.056 368.654 460.623C368.359 453.24 366.013 445.765 362.706 438.654C359.399 431.542 355.139 424.747 350.827 418.007C348.523 414.408 346.189 410.794 344.536 406.964C342.883 403.135 341.933 399.036 342.529 395.222C343.293 390.332 346.556 386.292 350.665 383.458Z" fill="#F9F9F9"/>
<path d="M282.879 451.253C280.762 456.943 277.103 461.716 272.707 464.523C268.31 467.329 263.536 467.939 259.435 466.218C255.333 464.497 252.24 460.587 250.835 455.346C249.43 450.106 249.829 443.965 251.943 438.273C254.058 432.582 257.716 427.807 262.111 424.997C266.507 422.188 271.281 421.575 275.384 423.292C279.487 425.01 282.582 428.918 283.989 434.157C285.396 439.396 285 445.537 282.888 451.229" fill="#4A3A4F"/>
<path d="M443.173 356.076C448.558 358.855 454.846 359.703 460.655 358.435C466.464 357.166 471.318 353.885 474.149 349.313C476.98 344.74 477.557 339.251 475.752 334.052C473.948 328.853 469.91 324.37 464.526 321.589C459.142 318.808 452.854 317.957 447.044 319.222C441.234 320.488 436.379 323.766 433.544 328.337C430.71 332.908 430.13 338.397 431.932 343.597C433.733 348.796 437.769 353.281 443.151 356.065" fill="#4A3A4F"/>
<path d="M407.364 433.802C409.059 436.47 409.246 440.031 407.884 443.701C406.522 447.371 403.723 450.849 400.101 453.372C396.48 455.894 392.333 457.254 388.572 457.152C384.812 457.05 381.746 455.494 380.049 452.828C378.352 450.161 378.162 446.601 379.522 442.931C380.882 439.261 383.68 435.781 387.301 433.257C390.921 430.734 395.068 429.372 398.829 429.472C402.59 429.572 405.658 431.126 407.357 433.791" fill="#4A3A4F"/>
<path d="M397.31 497.914C396.285 498.278 395.177 498.413 394.141 498.301C393.104 498.189 392.142 497.83 391.387 497.274C390.633 496.717 390.089 495.966 389.831 495.123C389.574 494.281 389.602 493.35 389.914 492.461C390.234 491.546 390.845 490.685 391.615 489.947C392.384 489.209 393.309 488.591 394.292 488.077C396.258 487.048 398.437 486.438 400.57 485.772C405.882 484.116 411.098 482.043 415.867 479.296C420.636 476.549 424.957 473.106 428.141 469.045C429.215 467.675 430.165 466.231 431.45 464.986C432.093 464.363 432.819 463.794 433.636 463.349C434.454 462.904 435.366 462.587 436.289 462.489C437.167 462.395 438.042 462.501 438.812 462.774C439.582 463.046 440.248 463.482 440.764 464.023C441.797 465.105 442.207 466.584 442.087 468.064C441.966 469.544 441.342 471.026 440.472 472.395C439.602 473.764 438.49 475.03 437.331 476.257C432.388 481.491 426.483 486.132 419.888 489.801C412.918 493.678 405.192 496.455 397.31 497.914Z" fill="#4A3A4F"/>
</g>
<defs>
<clipPath id="clip0_56_2">
<rect width="740" height="716" fill="white"/>
</clipPath>
</defs>
</svg>
