<svg width="90" height="77" viewBox="0 0 90 77" fill="none" xmlns="http://www.w3.org/2000/svg">
<g filter="url(#filter0_d_61_11)">
<path d="M28.6 2.61968e-07C29.6874 2.61968e-07 30.7302 0.403895 31.4991 1.12283C32.268 1.84177 32.7 2.81686 32.7 3.83359C32.7 4.85032 32.268 5.82541 31.4991 6.54435C30.7302 7.26329 29.6874 7.66718 28.6 7.66718H23.4463L13.6063 38.3359H36.8C37.8874 38.3359 38.9302 38.7398 39.6991 39.4587C40.468 40.1777 40.9 41.1528 40.9 42.1695V46.0031H49.1V42.1695C49.1 41.1528 49.532 40.1777 50.3009 39.4587C51.0698 38.7398 52.1126 38.3359 53.2 38.3359H76.3896L66.5496 7.66718H61.4C60.3958 7.66706 59.4265 7.32233 58.6761 6.69838C57.9256 6.07442 57.4462 5.21465 57.3287 4.28212L57.3 3.83359C57.3 2.81686 57.732 1.84177 58.5009 1.12283C59.2698 0.403895 60.3126 2.61968e-07 61.4 2.61968e-07H69.6C70.482 -5.69888e-05 71.3406 0.265858 72.0482 0.758264C72.7558 1.25067 73.2747 1.94331 73.5278 2.73335L85.8688 41.2073L85.959 41.6366L85.9918 41.9433L86 51.7535C85.9987 56.1618 84.1926 60.4024 80.9525 63.6047C77.7123 66.807 73.284 68.728 68.5766 68.9733C63.8692 69.2185 59.2401 67.7695 55.6394 64.9237C52.0388 62.0779 49.7399 58.0512 49.2148 53.6703H40.7852C40.2601 58.0512 37.9612 62.0779 34.3606 64.9237C30.7599 67.7695 26.1308 69.2185 21.4234 68.9733C16.716 68.728 12.2877 66.807 9.04754 63.6047C5.80739 60.4024 4.00127 56.1618 4 51.7535V42.1005L4.0164 41.8283L4.0738 41.4334L4.1476 41.1421L16.4722 2.72952C16.7261 1.94019 17.2453 1.2484 17.9528 0.756727C18.6603 0.265056 19.5185 -0.000304355 20.4 2.61968e-07H28.6Z" fill="#4A3A4F"/>
<path d="M23.0816 7.16718H23.4463H28.6C29.5652 7.16718 30.4847 6.80835 31.1576 6.17913C31.8295 5.55097 32.2 4.70646 32.2 3.83359C32.2 2.96072 31.8295 2.11621 31.1576 1.48805L31.4949 1.12732L31.1576 1.48805C30.4847 0.858828 29.5652 0.5 28.6 0.5H20.4H20.3998C19.6178 0.49973 18.8598 0.735314 18.2381 1.16732C17.617 1.59895 17.1672 2.20181 16.9483 2.88227L23.0816 7.16718ZM23.0816 7.16718L22.9702 7.51443L13.1302 38.1832L12.9208 38.8359H13.6063H36.8C37.7652 38.8359 38.6847 39.1947 39.3576 39.824C40.0295 40.4521 40.4 41.2966 40.4 42.1695V46.0031V46.5031H40.9H49.1H49.6V46.0031V42.1695C49.6 41.2966 49.9705 40.4521 50.6423 39.824C51.3153 39.1947 52.2348 38.8359 53.2 38.8359H76.3896H77.0751L76.8657 38.1832L67.0257 7.51443L66.9143 7.16718H66.5496H61.4001C61.4 7.16718 61.4 7.16718 61.4 7.16718C60.5089 7.16706 59.6536 6.86088 58.9957 6.31391C58.3427 5.77093 57.9308 5.03022 57.8267 4.2343L57.8 3.81819C57.8044 2.95079 58.1745 2.11252 58.8424 1.48805C59.5153 0.858828 60.4348 0.5 61.4 0.5H69.6C70.3825 0.499949 71.1409 0.736025 71.7626 1.16867C72.3839 1.60101 72.8334 2.20472 73.0517 2.88592L73.0517 2.88607L85.3848 41.3353L85.4645 41.7148L85.4918 41.9701L85.5 51.7533C85.5 51.7535 85.5 51.7536 85.5 51.7537C85.4986 56.0234 83.7496 60.1373 80.601 63.2491C77.4513 66.3619 73.1402 68.2348 68.5506 68.4739C63.9609 68.7131 59.452 67.2997 55.9495 64.5314C52.4478 61.7639 50.22 57.8547 49.7112 53.6108L49.6584 53.1703H49.2148H40.7852H40.3416L40.2888 53.6108C39.78 57.8547 37.5522 61.7639 34.0505 64.5314C30.548 67.2997 26.0391 68.7131 21.4494 68.4739C16.8598 68.2348 12.5487 66.3619 9.39901 63.2491C6.25034 60.1372 4.50127 56.0232 4.5 51.7535C4.5 51.7534 4.5 51.7534 4.5 51.7533L4.5 42.1155L4.51423 41.8794L4.56486 41.5311L4.62846 41.28L16.9482 2.88261L23.0816 7.16718Z" stroke="black"/>
</g>
<defs>
<filter id="filter0_d_61_11" x="0" y="0" width="90" height="77" filterUnits="userSpaceOnUse" color-interpolation-filters="sRGB">
<feFlood flood-opacity="0" result="BackgroundImageFix"/>
<feColorMatrix in="SourceAlpha" type="matrix" values="0 0 0 0 0 0 0 0 0 0 0 0 0 0 0 0 0 0 127 0" result="hardAlpha"/>
<feOffset dy="4"/>
<feGaussianBlur stdDeviation="2"/>
<feComposite in2="hardAlpha" operator="out"/>
<feColorMatrix type="matrix" values="0 0 0 0 0 0 0 0 0 0 0 0 0 0 0 0 0 0 0.25 0"/>
<feBlend mode="normal" in2="BackgroundImageFix" result="effect1_dropShadow_61_11"/>
<feBlend mode="normal" in="SourceGraphic" in2="effect1_dropShadow_61_11" result="shape"/>
</filter>
</defs>
</svg>
